<svg width="93" height="99" viewBox="0 0 93 99" fill="none" xmlns="http://www.w3.org/2000/svg">
<mask id="path-1-outside-1_6_35" maskUnits="userSpaceOnUse" x="0.632004" y="0.119995" width="92" height="99" fill="black">
<rect fill="white" x="0.632004" y="0.119995" width="92" height="99"/>
<path d="M51.888 95.28C44.8907 95.28 38.448 94.1707 32.56 91.952C26.7573 89.648 21.68 86.448 17.328 82.352C12.976 78.1707 9.60534 73.264 7.216 67.632C4.82667 62 3.632 55.856 3.632 49.2C3.632 42.544 4.82667 36.4 7.216 30.768C9.60534 25.136 12.976 20.272 17.328 16.176C21.7653 11.9947 26.928 8.79467 32.816 6.576C38.704 4.272 45.1467 3.12 52.144 3.12C59.7387 3.12 66.5653 4.35733 72.624 6.83199C78.768 9.30666 83.9307 12.9333 88.112 17.712L77.616 27.952C74.1173 24.4533 70.32 21.8933 66.224 20.272C62.2133 18.5653 57.776 17.712 52.912 17.712C48.2187 17.712 43.8667 18.48 39.856 20.016C35.8453 21.552 32.3893 23.728 29.488 26.544C26.5867 29.36 24.3253 32.688 22.704 36.528C21.168 40.368 20.4 44.592 20.4 49.2C20.4 53.7227 21.168 57.904 22.704 61.744C24.3253 65.584 26.5867 68.9547 29.488 71.856C32.3893 74.672 35.8027 76.848 39.728 78.384C43.6533 79.92 48.0053 80.688 52.784 80.688C57.2213 80.688 61.488 80.0053 65.584 78.64C69.7653 77.1893 73.7333 74.8 77.488 71.472L86.96 83.888C82.2667 87.6427 76.8053 90.5013 70.576 92.464C64.432 94.3413 58.2027 95.28 51.888 95.28ZM71.216 81.712V67.632H86.96V83.888L71.216 81.712Z"/>
<path d="M53 42L88 42V56L53 56V42Z"/>
</mask>
<path d="M51.888 95.28C44.8907 95.28 38.448 94.1707 32.56 91.952C26.7573 89.648 21.68 86.448 17.328 82.352C12.976 78.1707 9.60534 73.264 7.216 67.632C4.82667 62 3.632 55.856 3.632 49.2C3.632 42.544 4.82667 36.4 7.216 30.768C9.60534 25.136 12.976 20.272 17.328 16.176C21.7653 11.9947 26.928 8.79467 32.816 6.576C38.704 4.272 45.1467 3.12 52.144 3.12C59.7387 3.12 66.5653 4.35733 72.624 6.83199C78.768 9.30666 83.9307 12.9333 88.112 17.712L77.616 27.952C74.1173 24.4533 70.32 21.8933 66.224 20.272C62.2133 18.5653 57.776 17.712 52.912 17.712C48.2187 17.712 43.8667 18.48 39.856 20.016C35.8453 21.552 32.3893 23.728 29.488 26.544C26.5867 29.36 24.3253 32.688 22.704 36.528C21.168 40.368 20.4 44.592 20.4 49.2C20.4 53.7227 21.168 57.904 22.704 61.744C24.3253 65.584 26.5867 68.9547 29.488 71.856C32.3893 74.672 35.8027 76.848 39.728 78.384C43.6533 79.92 48.0053 80.688 52.784 80.688C57.2213 80.688 61.488 80.0053 65.584 78.64C69.7653 77.1893 73.7333 74.8 77.488 71.472L86.96 83.888C82.2667 87.6427 76.8053 90.5013 70.576 92.464C64.432 94.3413 58.2027 95.28 51.888 95.28ZM71.216 81.712V67.632H86.96V83.888L71.216 81.712Z" fill="#B8B8B8"/>
<path d="M53 42L88 42V56L53 56V42Z" fill="#B8B8B8"/>
<path d="M32.56 91.952L31.4529 94.7403L31.4775 94.75L31.5022 94.7593L32.56 91.952ZM17.328 82.352L15.2495 84.5153L15.2607 84.526L15.2719 84.5366L17.328 82.352ZM7.216 67.632L9.97775 66.4603L9.97775 66.4603L7.216 67.632ZM7.216 30.768L9.97775 31.9396L9.97775 31.9396L7.216 30.768ZM17.328 16.176L19.3841 18.3606L19.3854 18.3594L17.328 16.176ZM32.816 6.576L33.8738 9.38331L33.8916 9.37663L33.9092 9.36972L32.816 6.576ZM72.624 6.83199L71.4896 9.60926L71.4964 9.61202L71.5032 9.61475L72.624 6.83199ZM88.112 17.712L90.207 19.8593L92.2409 17.875L90.3697 15.7365L88.112 17.712ZM77.616 27.952L75.4947 30.0733L77.59 32.1686L79.711 30.0993L77.616 27.952ZM66.224 20.272L65.0493 23.0325L65.0844 23.0474L65.1199 23.0614L66.224 20.272ZM39.856 20.016L40.9289 22.8176L40.9289 22.8176L39.856 20.016ZM22.704 36.528L19.9403 35.3611L19.9292 35.3873L19.9186 35.4138L22.704 36.528ZM22.704 61.744L19.9186 62.8582L19.9292 62.8846L19.9403 62.9109L22.704 61.744ZM29.488 71.856L27.3667 73.9773L27.3825 73.9932L27.3986 74.0087L29.488 71.856ZM39.728 78.384L40.8212 75.5903L40.8212 75.5903L39.728 78.384ZM65.584 78.64L66.5327 81.486L66.55 81.4803L66.5673 81.4743L65.584 78.64ZM77.488 71.472L79.8732 69.6524L77.9146 67.0851L75.4981 69.227L77.488 71.472ZM86.96 83.888L88.8341 86.2306L89.96 85.3299V83.888H86.96ZM70.576 92.464L71.4527 95.3331L71.4651 95.3292L71.4775 95.3253L70.576 92.464ZM71.216 81.712H68.216V84.3259L70.8053 84.6837L71.216 81.712ZM71.216 67.632V64.632H68.216V67.632H71.216ZM86.96 67.632H89.96V64.632H86.96V67.632ZM53 42L53 39L50 39V42H53ZM88 42H91V39L88 39L88 42ZM88 56L88 59L91 59V56H88ZM53 56H50V59L53 59L53 56ZM51.888 92.28C45.2117 92.28 39.1319 91.2225 33.6178 89.1447L31.5022 94.7593C37.7641 97.1189 44.5697 98.28 51.888 98.28V92.28ZM33.6671 89.1638C28.2 86.993 23.4484 83.9926 19.3841 80.1674L15.2719 84.5366C19.9116 88.9033 25.3146 92.303 31.4529 94.7403L33.6671 89.1638ZM19.4065 80.1887C15.351 76.2923 12.2109 71.7243 9.97775 66.4603L4.45426 68.8036C6.99975 74.8037 10.601 80.0491 15.2495 84.5153L19.4065 80.1887ZM9.97775 66.4603C7.75901 61.2305 6.632 55.4891 6.632 49.2H0.632004C0.632004 56.2229 1.89433 62.7695 4.45426 68.8036L9.97775 66.4603ZM6.632 49.2C6.632 42.9109 7.75901 37.1695 9.97775 31.9396L4.45426 29.5963C1.89433 35.6305 0.632004 42.1771 0.632004 49.2H6.632ZM9.97775 31.9396C12.2086 26.6813 15.3423 22.1647 19.3841 18.3606L15.2719 13.9914C10.6097 18.3793 7.00209 23.5907 4.45426 29.5963L9.97775 31.9396ZM19.3854 18.3594C23.5248 14.4588 28.3449 11.4667 33.8738 9.38331L31.7582 3.76868C25.5112 6.12264 20.0059 9.53053 15.2706 13.9926L19.3854 18.3594ZM33.9092 9.36972C39.4135 7.21585 45.4809 6.12 52.144 6.12V0.119995C44.8125 0.119995 37.9945 1.32814 31.7228 3.78227L33.9092 9.36972ZM52.144 6.12C59.4113 6.12 65.8441 7.30332 71.4896 9.60926L73.7584 4.05473C67.2866 1.41134 60.066 0.119995 52.144 0.119995V6.12ZM71.5032 9.61475C77.2295 11.9212 81.9968 15.2789 85.8543 19.6875L90.3697 15.7365C85.8646 10.5877 80.3065 6.69213 73.7448 4.04924L71.5032 9.61475ZM86.017 15.5647L75.521 25.8046L79.711 30.0993L90.207 19.8593L86.017 15.5647ZM79.7373 25.8307C75.9845 22.0779 71.8496 19.2723 67.3282 17.4826L65.1199 23.0614C68.7904 24.5143 72.2502 26.8288 75.4947 30.0733L79.7373 25.8307ZM67.3987 17.5115C62.9757 15.6294 58.1328 14.712 52.912 14.712V20.712C57.4192 20.712 61.4509 21.5012 65.0493 23.0325L67.3987 17.5115ZM52.912 14.712C47.886 14.712 43.1667 15.5356 38.7831 17.2144L40.9289 22.8176C44.5666 21.4244 48.5513 20.712 52.912 20.712V14.712ZM38.7831 17.2144C34.4171 18.8865 30.6092 21.2751 27.3986 24.3913L31.5774 28.6967C34.1695 26.1809 37.2736 24.2175 40.9289 22.8176L38.7831 17.2144ZM27.3986 24.3913C24.1997 27.4961 21.7131 31.1623 19.9403 35.3611L25.4678 37.6949C26.9376 34.2137 28.9737 31.2239 31.5774 28.6967L27.3986 24.3913ZM19.9186 35.4138C18.2255 39.6465 17.4 44.2538 17.4 49.2H23.4C23.4 44.9301 24.1105 41.0895 25.4894 37.6422L19.9186 35.4138ZM17.4 49.2C17.4 54.0685 18.2281 58.632 19.9186 62.8582L25.4894 60.6298C24.1079 57.176 23.4 53.3768 23.4 49.2H17.4ZM19.9403 62.9109C21.7097 67.1017 24.1872 70.7979 27.3667 73.9773L31.6093 69.7347C28.9861 67.1115 26.941 64.0663 25.4678 60.5771L19.9403 62.9109ZM27.3986 74.0087C30.5982 77.1143 34.3542 79.5027 38.6348 81.1777L40.8212 75.5903C37.2511 74.1933 34.1804 72.2297 31.5774 69.7033L27.3986 74.0087ZM38.6348 81.1777C42.9519 82.867 47.6809 83.688 52.784 83.688V77.688C48.3298 77.688 44.3548 76.973 40.8212 75.5903L38.6348 81.1777ZM52.784 83.688C57.5347 83.688 62.1223 82.9562 66.5327 81.486L64.6353 75.7939C60.8537 77.0545 56.9079 77.688 52.784 77.688V83.688ZM66.5673 81.4743C71.1658 79.8789 75.4686 77.2708 79.4779 73.717L75.4981 69.227C71.9981 72.3292 68.3649 74.4998 64.6007 75.8057L66.5673 81.4743ZM75.1028 73.2916L84.5748 85.7076L89.3452 82.0684L79.8732 69.6524L75.1028 73.2916ZM85.0859 81.5454C80.7061 85.0492 75.5811 87.7417 69.6745 89.6027L71.4775 95.3253C78.0296 93.261 83.8272 90.2361 88.8341 86.2306L85.0859 81.5454ZM69.6993 89.5949C63.8345 91.387 57.9004 92.28 51.888 92.28V98.28C58.5049 98.28 65.0295 97.2957 71.4527 95.3331L69.6993 89.5949ZM74.216 81.712V67.632H68.216V81.712H74.216ZM71.216 70.632H86.96V64.632H71.216V70.632ZM83.96 67.632V83.888H89.96V67.632H83.96ZM87.3707 80.9163L71.6267 78.7402L70.8053 84.6837L86.5493 86.8598L87.3707 80.9163ZM53 45L88 45L88 39L53 39L53 45ZM85 42V56H91V42H85ZM88 53L53 53L53 59L88 59L88 53ZM56 56V42H50V56H56Z" fill="white" mask="url(#path-1-outside-1_6_35)"/>
</svg>
